<svg xmlns="http://www.w3.org/2000/svg" viewBox="0 0 24 24" width="100" height="100">
    <path fill="#333" d="M12 15.5c-1.93 0-3.5-1.57-3.5-3.5s1.57-3.5 3.5-3.5 3.5 1.57 3.5 3.5-1.57 3.5-3.5 3.5zm9.53-1.44l-1.43-1.1c.04-.25.07-.5.07-.77s-.03-.52-.07-.77l1.43-1.1a1.06 1.06 0 0 0 .25-1.42l-2-3.46a1.06 1.06 0 0 0-1.27-.48l-1.66.67c-.42-.33-.87-.62-1.36-.85l-.25-1.76A1.05 1.05 0 0 0 14.3 2h-4.6c-.55 0-1.01.42-1.05.97l-.25 1.76c-.49.23-.94.52-1.36.85l-1.66-.67a1.06 1.06 0 0 0-1.27.48l-2 3.46a1.06 1.06 0 0 0 .25 1.42l1.43 1.1c-.04.25-.07.5-.07.77s.03.52.07.77l-1.43 1.1a1.06 1.06 0 0 0-.25 1.42l2 3.46c.27.47.82.67 1.27.48l1.66-.67c.42.33.87.62 1.36.85l.25 1.76c.04.55.5.97 1.05.97h4.6c.55 0 1.01-.42 1.05-.97l.25-1.76c.49-.23.94-.52 1.36-.85l1.66.67c.45.18 1-.02 1.27-.48l2-3.46c.27-.47.12-1.08-.25-1.42zM12 14c-1.1 0-2-.9-2-2s.9-2 2-2 2 .9 2 2-.9 2-2 2z"/>
    <circle cx="12" cy="12" r="2" fill="#00A1F1"/>
</svg>